<?xml version="1.0" encoding="UTF-8" standalone="no"?>
<!DOCTYPE svg PUBLIC "-//W3C//DTD SVG 1.1//EN" "http://www.w3.org/Graphics/SVG/1.1/DTD/svg11.dtd">
<svg id="yantra" xmlns="http://www.w3.org/2000/svg" version="1.1" baseProfile="full" width="700px" height="700px">
  <title>Sri Yantra</title>
  <!-- Created with Sri Yantra Designer 5.2 http://www.premaloka.de/sriyantra/ -->
  <!-- Date: Tue, 12 Sep 2017 17:57:01 +0200 -->
  <g id="data" class="0 1 1 1 NULL 330 100 20 100 700 NULL NULL NULL NULL 10 300 100 20 100 2 300 100 30 100 8 300 100 40 100 8 NULL NULL NULL NULL 200 NULL NULL NULL NULL 15 40 100 50 100 NULL NULL NULL NULL NULL 275 0 100 20 100 1 15 100 35 100 8 20 100 40 100 10 25 100 45 100 12 50 100 80 100 0 300 100 20 100 1 300 100 80 100 35 300 100 30 100 25 40 100 50 100 90 50 100 80 100 50 300 100 20 100 1 300 100 90 100 40 300 100 40 100 25 30 100 45 100 100 50 100 80 100 50 NULL NULL NULL NULL 5 0 100 20 100 3 50 100 80 100 NULL 0 100 50 100 3 0 0 100 100 0 "></g>
  
  <defs>
    <radialGradient id="grad1">
      <stop id="st0" offset="84.87654320987654%" stop-color="#ffee99" stop-opacity="1"></stop>
      <stop id="st1" offset="100%" stop-color="#ffaa00" stop-opacity="1"></stop>
    </radialGradient>
    <radialGradient id="grad2">
      <stop id="st2" offset="90.81632653061224%" stop-color="#ffee99" stop-opacity="1"></stop>
      <stop id="st3" offset="100%" stop-color="#ffaa00" stop-opacity="1"></stop>
    </radialGradient>
    <radialGradient id="grad3">
      <stop id="st4" offset="87.5%" stop-color="#ffee99" stop-opacity="1"></stop>
      <stop id="st5" offset="100%" stop-color="#e67300" stop-opacity="1"></stop>
    </radialGradient>
    <radialGradient id="grad4">
      <stop id="st6" offset="2%" stop-color="#ffffff" stop-opacity="1"></stop>
      <stop id="st7" offset="100%" stop-color="#ffee99" stop-opacity="1"></stop>
    </radialGradient>
    <radialGradient id="grad5" gradientUnits="userSpaceOnUse" cx="50%" cy="50%" r="50%">
      <stop id="st8" offset="57.142857142857146%" stop-color="#ff99ff" stop-opacity="1"></stop>
      <stop id="st9" offset="70%" stop-color="#990099" stop-opacity="1"></stop>
    </radialGradient>
    <radialGradient id="grad6" gradientUnits="userSpaceOnUse" cx="50%" cy="50%" r="50%">
      <stop id="st10" offset="42.857142857142854%" stop-color="#ffccff" stop-opacity="1"></stop>
      <stop id="st11" offset="57.142857142857146%" stop-color="#cc00cc" stop-opacity="1"></stop>
    </radialGradient>
  </defs>
  
  <rect id="bg" x="0" y="0" width="100%" height="100%" fill="#660033" fill-opacity="1"></rect>
  
  <path id="bhupura1" fill="none" d="M 157 14 h 386 v 39 h -81 v 23 h 162 v 162 h 23 v -81 h 39 v 386 h -39 v -81 h -23 v 162 h -162 v 23 h 81 v 39 h -386 v -39 h 81 v -23 h -162 v -162 h -23 v 81 h -39 v -386 h 39 v 81 h 23 v -162 h 162 v -23 h -81 z" stroke="#990099" stroke-width="8px" stroke-opacity="1" stroke-linejoin="miter"></path>
  <path id="bhupura2" fill="none" d="M 165 22 h 370 v 23 h -81 v 39 h 162 v 162 h 39 v -81 h 23 v 370 h -23 v -81 h -39 v 162 h -162 v 39 h 81 v 23 h -370 v -23 h 81 v -39 h -162 v -162 h -39 v 81 h -23 v -370 h 23 v 81 h 39 v -162 h 162 v -39 h -81 z" stroke="#cc00cc" stroke-width="8px" stroke-opacity="1" stroke-linejoin="miter"></path>
  <path id="bhupura3" fill="none" d="M 153 10 h 394 v 47 h -81 v 15 h 162 v 162 h 15 v -81 h 47 v 394 h -47 v -81 h -15 v 162 h -162 v 15 h 81 v 47 h -394 v -47 h 81 v -15 h -162 v -162 h -15 v 81 h -47 v -394 h 47 v 81 h 15 v -162 h 162 v -15 h -81 z" stroke="#660066" stroke-width="2px" stroke-opacity="1" stroke-linejoin="miter"></path>
  <path id="bhupura4" fill="none" d="M 161 18 h 378 v 31 h -81 v 31 h 162 v 162 h 31 v -81 h 31 v 378 h -31 v -81 h -31 v 162 h -162 v 31 h 81 v 31 h -378 v -31 h 81 v -31 h -162 v -162 h -31 v 81 h -31 v -378 h 31 v 81 h 31 v -162 h 162 v -31 h -81 z" stroke="#660066" stroke-width="2px" stroke-opacity="1" stroke-linejoin="miter"></path>
  <path id="bhupura5" fill="url(#grad1)" d="M 169 26 h 362 v 15 h -81 v 47 h 162 v 162 h 47 v -81 h 15 v 362 h -15 v -81 h -47 v 162 h -162 v 47 h 81 v 15 h -362 v -15 h 81 v -47 h -162 v -162 h -47 v 81 h -15 v -362 h 15 v 81 h 47 v -162 h 162 v -47 h -81 z" stroke="#660066" stroke-width="2px" stroke-opacity="1" stroke-linejoin="miter"></path>
  
  <circle id="c1" fill="none" cx="50%" cy="50%" r="271px" stroke="#b32d00" stroke-opacity="1" stroke-width="8px"></circle>
  <circle id="c2" fill="none" cx="50%" cy="50%" r="262px" stroke="#cc4400" stroke-opacity="1" stroke-width="10px"></circle>
  <circle id="c3" fill="none" cx="50%" cy="50%" r="251px" stroke="#e66000" stroke-opacity="1" stroke-width="12px"></circle>
  <circle id="c4" fill="url(#grad2)" cx="50%" cy="50%" r="245px"></circle>
  <circle id="c5" fill="url(#grad3)" cx="50%" cy="50%" r="200px"></circle>
  <circle id="c6" fill="url(#grad4)" cx="50%" cy="50%" r="150px"></circle>
  <circle id="c7" fill="none" cx="50%" cy="50%" r="275px" stroke="#660000" stroke-opacity="1" stroke-width="1px"></circle>
  <circle id="c8" fill="none" cx="50%" cy="50%" r="267px" stroke="#660000" stroke-opacity="1" stroke-width="1px"></circle>
  <circle id="c9" fill="none" cx="50%" cy="50%" r="257px" stroke="#660000" stroke-opacity="1" stroke-width="1px"></circle>
  <circle id="c10" fill="none" cx="50%" cy="50%" r="245px" stroke="#660000" stroke-opacity="1" stroke-width="1px"></circle>
  
  <path id="p1" fill="url(#grad5)" d="M 443.757440929447,123.64951453473475 C 434.19035512031974,146.74650284751692 480.5590047596065,154.60464110890186 461.11404660392043,183.70607753949096 A 200,200 0 0,0 389.01806440322565,153.8429439193539 C 395.8462256737901,119.51545910524084 434.19035512031974,146.74650284751692 443.757440929447,123.64951453473475 Z" stroke="#660066" stroke-opacity="1" stroke-width="1px" stroke-linejoin="round"></path>
  <path id="p2" fill="url(#grad5)" d="M 523.2411613907041,176.75883860929585 C 505.56349186104046,194.43650813895954 545.3953588910981,219.44099524039345 516.2939224605091,238.88595339607954 A 200,200 0 0,0 461.11404660392043,183.70607753949096 C 480.5590047596065,154.60464110890186 505.56349186104046,194.43650813895954 523.2411613907041,176.75883860929585 Z" stroke="#660066" stroke-opacity="1" stroke-width="1px" stroke-linejoin="round"></path>
  <path id="p3" fill="url(#grad5)" d="M 576.3504854652653,256.242559070553 C 553.2534971524831,265.80964487968026 580.4845408947592,304.1537743262098 546.157056080646,310.98193559677435 A 200,200 0 0,0 516.2939224605091,238.88595339607954 C 545.3953588910981,219.44099524039345 553.2534971524831,265.80964487968026 576.3504854652653,256.242559070553 Z" stroke="#660066" stroke-opacity="1" stroke-width="1px" stroke-linejoin="round"></path>
  <path id="p4" fill="url(#grad5)" d="M 595,350 C 570,350 580.4845408947592,395.8462256737901 546.157056080646,389.01806440322565 A 200,200 0 0,0 546.157056080646,310.98193559677435 C 580.4845408947592,304.1537743262098 570,350 595,350 Z" stroke="#660066" stroke-opacity="1" stroke-width="1px" stroke-linejoin="round"></path>
  <path id="p5" fill="url(#grad5)" d="M 576.3504854652653,443.757440929447 C 553.2534971524831,434.19035512031974 545.3953588910981,480.55900475960647 516.2939224605091,461.1140466039204 A 200,200 0 0,0 546.157056080646,389.01806440322565 C 580.4845408947592,395.8462256737901 553.2534971524831,434.19035512031974 576.3504854652653,443.757440929447 Z" stroke="#660066" stroke-opacity="1" stroke-width="1px" stroke-linejoin="round"></path>
  <path id="p6" fill="url(#grad5)" d="M 523.2411613907042,523.2411613907041 C 505.56349186104046,505.56349186104046 480.5590047596065,545.3953588910981 461.11404660392043,516.2939224605091 A 200,200 0 0,0 516.2939224605091,461.1140466039204 C 545.3953588910981,480.55900475960647 505.56349186104046,505.56349186104046 523.2411613907042,523.2411613907041 Z" stroke="#660066" stroke-opacity="1" stroke-width="1px" stroke-linejoin="round"></path>
  <path id="p7" fill="url(#grad5)" d="M 443.75744092944706,576.3504854652653 C 434.1903551203198,553.2534971524831 395.84622567379023,580.4845408947592 389.0180644032257,546.157056080646 A 200,200 0 0,0 461.11404660392043,516.2939224605091 C 480.5590047596065,545.3953588910981 434.1903551203198,553.2534971524831 443.75744092944706,576.3504854652653 Z" stroke="#660066" stroke-opacity="1" stroke-width="1px" stroke-linejoin="round"></path>
  <path id="p8" fill="url(#grad5)" d="M 350.00000000000006,595 C 350,570 304.1537743262098,580.4845408947592 310.98193559677435,546.157056080646 A 200,200 0 0,0 389.0180644032257,546.157056080646 C 395.84622567379023,580.4845408947592 350,570 350.00000000000006,595 Z" stroke="#660066" stroke-opacity="1" stroke-width="1px" stroke-linejoin="round"></path>
  <path id="p9" fill="url(#grad5)" d="M 256.24255907055306,576.3504854652653 C 265.80964487968026,553.2534971524831 219.44099524039353,545.3953588910981 238.88595339607963,516.2939224605091 A 200,200 0 0,0 310.98193559677435,546.157056080646 C 304.1537743262098,580.4845408947592 265.80964487968026,553.2534971524831 256.24255907055306,576.3504854652653 Z" stroke="#660066" stroke-opacity="1" stroke-width="1px" stroke-linejoin="round"></path>
  <path id="p10" fill="url(#grad5)" d="M 176.75883860929588,523.2411613907042 C 194.43650813895957,505.56349186104046 154.60464110890186,480.5590047596065 183.70607753949096,461.11404660392043 A 200,200 0 0,0 238.88595339607963,516.2939224605091 C 219.44099524039353,545.3953588910981 194.43650813895957,505.56349186104046 176.75883860929588,523.2411613907042 Z" stroke="#660066" stroke-opacity="1" stroke-width="1px" stroke-linejoin="round"></path>
  <path id="p11" fill="url(#grad5)" d="M 123.6495145347348,443.7574409294471 C 146.74650284751698,434.19035512031985 119.51545910524086,395.84622567379023 153.84294391935393,389.0180644032257 A 200,200 0 0,0 183.70607753949105,461.1140466039206 C 154.60464110890197,480.5590047596067 146.74650284751698,434.19035512031985 123.6495145347348,443.7574409294471 Z" stroke="#660066" stroke-opacity="1" stroke-width="1px" stroke-linejoin="round"></path>
  <path id="p12" fill="url(#grad5)" d="M 105,350.00000000000006 C 130,350.00000000000006 119.51545910524084,304.1537743262098 153.8429439193539,310.98193559677435 A 200,200 0 0,0 153.84294391935393,389.0180644032257 C 119.51545910524086,395.84622567379023 130,350.00000000000006 105,350.00000000000006 Z" stroke="#660066" stroke-opacity="1" stroke-width="1px" stroke-linejoin="round"></path>
  <path id="p13" fill="url(#grad5)" d="M 123.64951453473478,256.24255907055294 C 146.74650284751695,265.8096448796802 154.60464110890192,219.4409952403934 183.706077539491,238.88595339607946 A 200,200 0 0,0 153.8429439193539,310.98193559677435 C 119.51545910524084,304.1537743262098 146.74650284751695,265.8096448796802 123.64951453473478,256.24255907055294 Z" stroke="#660066" stroke-opacity="1" stroke-width="1px" stroke-linejoin="round"></path>
  <path id="p14" fill="url(#grad5)" d="M 176.75883860929582,176.7588386092959 C 194.4365081389595,194.4365081389596 219.44099524039348,154.60464110890186 238.88595339607957,183.70607753949096 A 200,200 0 0,0 183.7060775394909,238.88595339607963 C 154.60464110890183,219.44099524039356 194.4365081389595,194.4365081389596 176.75883860929582,176.7588386092959 Z" stroke="#660066" stroke-opacity="1" stroke-width="1px" stroke-linejoin="round"></path>
  <path id="p15" fill="url(#grad5)" d="M 256.24255907055283,123.6495145347348 C 265.8096448796801,146.74650284751698 304.15377432620977,119.51545910524086 310.98193559677424,153.84294391935393 A 200,200 0 0,0 238.8859533960794,183.70607753949108 C 219.4409952403933,154.604641108902 265.8096448796801,146.74650284751698 256.24255907055283,123.6495145347348 Z" stroke="#660066" stroke-opacity="1" stroke-width="1px" stroke-linejoin="round"></path>
  <path id="p16" fill="url(#grad5)" d="M 349.99999999999994,105 C 349.99999999999994,130 395.8462256737901,119.51545910524084 389.01806440322565,153.8429439193539 A 200,200 0 0,0 310.98193559677424,153.84294391935393 C 304.15377432620977,119.51545910524086 349.99999999999994,130 349.99999999999994,105 Z" stroke="#660066" stroke-opacity="1" stroke-width="1px" stroke-linejoin="round"></path>
  
  <path id="p17" fill="url(#grad6)" d="M 491.42135623730957,208.57864376269055 C 473.74368670764585,226.25631329235424 525.5371111771445,277.29014785063305 488.58192987669304,292.59748514523665 A 150,150 0 0,0 407.40251485476347,211.418070123307 C 422.70985214936707,174.46288882285552 473.74368670764585,226.25631329235424 491.42135623730957,208.57864376269055 Z" stroke="#660066" stroke-opacity="1" stroke-width="1px" stroke-linejoin="round"></path>
  <path id="p18" fill="url(#grad6)" d="M 550,349.9999999999999 C 525,349.9999999999999 525.5371111771445,422.70985214936707 488.58192987669304,407.40251485476347 A 150,150 0 0,0 488.5819298766929,292.5974851452364 C 525.5371111771444,277.29014785063276 525,349.9999999999999 550,349.9999999999999 Z" stroke="#660066" stroke-opacity="1" stroke-width="1px" stroke-linejoin="round"></path>
  <path id="p19" fill="url(#grad6)" d="M 491.42135623730974,491.4213562373093 C 473.743686707646,473.7436867076456 422.70985214936724,525.5371111771444 407.4025148547636,488.5819298766929 A 150,150 0 0,0 488.58192987669315,407.4025148547632 C 525.5371111771447,422.7098521493667 473.743686707646,473.7436867076456 491.42135623730974,491.4213562373093 Z" stroke="#660066" stroke-opacity="1" stroke-width="1px" stroke-linejoin="round"></path>
  <path id="p20" fill="url(#grad6)" d="M 350.0000000000001,550 C 350.0000000000001,525 277.2901478506333,525.5371111771447 292.5974851452368,488.58192987669315 A 150,150 0 0,0 407.4025148547636,488.5819298766929 C 422.70985214936724,525.5371111771444 350.0000000000001,525 350.0000000000001,550 Z" stroke="#660066" stroke-opacity="1" stroke-width="1px" stroke-linejoin="round"></path>
  <path id="p21" fill="url(#grad6)" d="M 208.57864376269046,491.4213562373095 C 226.25631329235415,473.7436867076458 174.4628888228556,422.70985214936724 211.41807012330705,407.40251485476364 A 150,150 0 0,0 292.5974851452363,488.5819298766929 C 277.29014785063265,525.5371111771444 226.25631329235415,473.7436867076458 208.57864376269046,491.4213562373095 Z" stroke="#660066" stroke-opacity="1" stroke-width="1px" stroke-linejoin="round"></path>
  <path id="p22" fill="url(#grad6)" d="M 150,350.0000000000005 C 175,350.00000000000045 174.46288882285523,277.2901478506336 211.41807012330676,292.59748514523704 A 150,150 0 0,0 211.41807012330705,407.40251485476364 C 174.4628888228556,422.70985214936724 175,350.00000000000045 150,350.0000000000005 Z" stroke="#660066" stroke-opacity="1" stroke-width="1px" stroke-linejoin="round"></path>
  <path id="p23" fill="url(#grad6)" d="M 208.57864376269026,208.57864376269072 C 226.25631329235398,226.25631329235438 277.2901478506324,174.46288882285572 292.59748514523613,211.41807012330716 A 150,150 0 0,0 211.41807012330696,292.5974851452366 C 174.4628888228555,277.290147850633 226.25631329235398,226.25631329235438 208.57864376269026,208.57864376269072 Z" stroke="#660066" stroke-opacity="1" stroke-width="1px" stroke-linejoin="round"></path>
  <path id="p24" fill="url(#grad6)" d="M 349.99999999999983,150 C 349.9999999999999,175 422.7098521493667,174.46288882285538 407.4025148547632,211.41807012330688 A 150,150 0 0,0 292.59748514523665,211.41807012330696 C 277.29014785063305,174.4628888228555 349.9999999999999,175 349.99999999999983,150 Z" stroke="#660066" stroke-opacity="1" stroke-width="1px" stroke-linejoin="round"></path>
  
  <path id="t1" fill="none" d="M 350 495 L 210.8 309.4 L 489.2 309.4 Z" stroke="#660000" stroke-opacity="1" stroke-width="3px" stroke-linejoin="round"></path>
  <path id="t2" fill="none" d="M 350 205 L 490.90179880942725 384.2298567374695 L 209.09820119057275 384.2298567374695 Z" stroke="#660000" stroke-opacity="1" stroke-width="3px" stroke-linejoin="round"></path>
  <path id="t3" fill="none" d="M 350 450.3017988094272 L 250.85369632742197 280.0912834522835 L 449.14630367257803 280.0912834522835 Z" stroke="#660000" stroke-opacity="1" stroke-width="3px" stroke-linejoin="round"></path>
  <path id="t4" fill="none" d="M 350 245.02985673746952 L 454.1268992286473 419.4988239846591 L 245.87310077135274 419.4988239846591 Z" stroke="#660000" stroke-opacity="1" stroke-width="3px" stroke-linejoin="round"></path>
  <path id="t5" fill="none" d="M 350 364.0172630188335 L 266.5779427959681 245.41810462448723 L 433.4220572040319 245.41810462448723 Z" stroke="#660000" stroke-opacity="1" stroke-width="3px" stroke-linejoin="round"></path>
  <path id="t6" fill="none" d="M 350 309.4 L 422.4684274166567 450.3017988094272 L 277.5315725833433 450.3017988094272 Z" stroke="#660000" stroke-opacity="1" stroke-width="3px" stroke-linejoin="round"></path>
  <path id="t7" fill="none" d="M 350 419.4988239846591 L 302.01980726671866 325.4226729694703 L 397.9801927332813 325.42267296947034 Z" stroke="#660000" stroke-opacity="1" stroke-width="3px" stroke-linejoin="round"></path>
  <path id="t8" fill="none" d="M 350 280.0912834522835 L 400.2600721805675 364.0172630188335 L 299.7399278194326 364.0172630188335 Z" stroke="#660000" stroke-opacity="1" stroke-width="3px" stroke-linejoin="round"></path>
  <path id="t9" fill="none" d="M 350 384.2298567374695 L 313.55470006501986 340.9488860170198 L 386.4452999349802 340.9488860170198 Z" stroke="#660000" stroke-opacity="1" stroke-width="3px" stroke-linejoin="round"></path>
  
  <circle id="b" stroke-width="1px" cx="50%" cy="50%" r="3px" fill="#ff0000" fill-opacity="1" stroke="#990000"></circle>
</svg>