<?xml version="1.0" encoding="utf-8"?>
<!-- Generator: Adobe Illustrator 19.0.0, SVG Export Plug-In . SVG Version: 6.00 Build 0)  -->
<svg version="1.1" xmlns="http://www.w3.org/2000/svg" xmlns:xlink="http://www.w3.org/1999/xlink" x="0px" y="0px"
	 viewBox="0 0 391.2 391.2" style="enable-background:new 0 0 391.2 391.2;" xml:space="preserve">
<style type="text/css">
	.st0{display:none;}
	.st1{display:inline;fill:none;stroke:#47B649;stroke-width:9.734;stroke-miterlimit:10;}
	.st2{display:inline;}
	.st3{fill:#47B649;}
	.st4{display:inline;fill:none;stroke:#47B649;stroke-width:6.5131;stroke-miterlimit:10;}
	.st5{display:inline;fill:none;stroke:#47B649;stroke-width:6.003;stroke-miterlimit:10;}
	.st6{display:inline;fill:none;stroke:#47B649;stroke-width:7.8643;stroke-miterlimit:10;}
	.st7{display:inline;fill:#FFFFFF;stroke:#47B649;stroke-width:8.14;stroke-miterlimit:10;}
	.st8{display:inline;fill:none;stroke:#47B649;stroke-width:14;stroke-miterlimit:10;}
	.st9{display:inline;fill:none;stroke:#47B649;stroke-width:10.814;stroke-miterlimit:10;}
	.st10{display:inline;fill:none;stroke:#47B649;stroke-width:12;stroke-miterlimit:10;}
	.st11{display:inline;fill:none;stroke:#47B649;stroke-width:8.5304;stroke-miterlimit:10;}
	.st12{display:inline;fill:none;stroke:#47B649;stroke-width:10;stroke-miterlimit:10;}
	.st13{clip-path:url(#SVGID_2_);}
	.st14{fill:url(#SVGID_3_);}
	.st15{fill:url(#SVGID_4_);}
	.st16{fill:#F5B724;}
	.st17{fill:none;stroke:#E4192E;stroke-width:4.8282;stroke-linecap:round;stroke-miterlimit:10;}
	.st18{display:inline;fill:#F5B724;}
	.st19{fill:#4EAE4C;}
	.st20{fill:none;stroke:#E4192E;stroke-width:10;stroke-linecap:round;stroke-miterlimit:10;}
	.st21{fill:#F4B624;}
	.st22{fill:#E4192E;}
	.st23{fill:#F5B724;stroke:#E4192E;stroke-width:14.4846;stroke-linecap:round;stroke-miterlimit:10;}
	.st24{fill:none;stroke:#E4192E;stroke-width:6.8393;stroke-linecap:round;stroke-miterlimit:10;}
	.st25{fill:#F5B724;stroke:#E4192E;stroke-width:13.6438;stroke-linecap:round;stroke-miterlimit:10;}
	.st26{fill:#F5B724;stroke:#E4192E;stroke-width:9.6564;stroke-linecap:round;stroke-miterlimit:10;}
	.st27{fill:#F5B724;stroke:#E4192E;stroke-width:7.933;stroke-linecap:round;stroke-miterlimit:10;}
	.st28{fill:#F5B724;stroke:#E4192E;stroke-width:11.6947;stroke-linecap:round;stroke-miterlimit:10;}
	.st29{fill:#F5B724;stroke:#E4192E;stroke-width:21.0315;stroke-linecap:round;stroke-miterlimit:10;}
	.st30{fill:#F5B724;stroke:#E4192E;stroke-width:8.3134;stroke-linecap:round;stroke-miterlimit:10;}
	
		.st31{clip-path:url(#SVGID_2_);fill:url(#SVGID_5_);stroke:url(#SVGID_6_);stroke-width:24.1411;stroke-linecap:round;stroke-miterlimit:10;}
</style>
<g id="Capa_1" class="st0">
	
		<image style="display:inline;overflow:visible;" width="862" height="1002" xlink:href="../favicon/mockup favicon carlos campos 2023 portfolio.jpg"  transform="matrix(0.6656 0 0 0.6656 8.7528 -818)">
	</image>
</g>
<g id="Capa_2" class="st0">
	<path class="st1" d="M130.9-551.9l135.3-108.9l4.9-7.8l77.9-15.6L333.7-640c0,0-29.7-4.9-33.7,3.6"/>
	<g class="st2">
		<g>
			<path class="st3" d="M156.3-602.3c4.5,0,8.5,1,12,3.1c10.1,6,12.6,18.9,13.2,26c1.2,15-3.4,32.5-12.6,48.1
				c-7.1,12-16.3,22.1-26.7,29c-9,6-18.4,9.3-26.5,9.3c-4.5,0-8.5-1-12-3.1c-10.1-6-12.6-18.9-13.2-26c-1.2-15,3.4-32.5,12.6-48.1
				c7.1-12,16.3-22.1,26.7-29C138.8-599,148.2-602.3,156.3-602.3 M156.3-624.3c-25.3,0-54,18.5-72.1,49.2
				c-24,40.7-20.2,87.3,8.4,104.2c7,4.2,14.9,6.1,23.2,6.1c25.3,0,54-18.5,72.1-49.2c24-40.7,20.2-87.3-8.4-104.2
				C172.5-622.4,164.6-624.3,156.3-624.3L156.3-624.3z"/>
		</g>
	</g>
	<path class="st4" d="M367.4-665.1"/>
	<path class="st4" d="M339.8-623.5c-1.4,4-26.9,17.6-33.4,10.1c-6.4-7.4-2.6-22.5,4.7-25.9c5.7-2.6,14.4-1.8,22.6-0.8"/>
	<line class="st5" x1="263.5" y1="-692" x2="358.6" y2="-709"/>
	<line class="st6" x1="340.1" y1="-622.7" x2="414.9" y2="-650"/>
	<g class="st2">
		<path class="st3" d="M396.1-777.7l0,8h0c2.3,0,4.8,0.3,7.3,1c7.5,2,13.3,6.5,16.6,12.9c3.8,7.4,4.3,17.1,1.3,28.1
			c-5.5,20.5-19.9,36-33.5,36c-1.5,0-2.9-0.2-4.3-0.6c-6.5-1.7-11.6-7.4-14.6-16.1c-3.4-9.7-3.5-21.6-0.3-33.5
			c4.8-17.9,14.6-27.8,27.4-27.8L396.1-777.7 M396.1-777.7c-15.3,0-29,10.7-35.2,33.8c-7.5,27.7,1.7,54.3,20.5,59.4
			c2.1,0.6,4.2,0.8,6.4,0.8c17,0,34.6-17.3,41.2-41.9c7.5-27.7-4.8-45.7-23.6-50.8C402.3-777.3,399.1-777.7,396.1-777.7L396.1-777.7
			z"/>
	</g>
	<g class="st2">
		<polygon class="st3" points="273.3,-583.5 327.7,-597 328.4,-593.5 290.3,-591.3 328.1,-597 328.7,-593.6 275.6,-575.7 		"/>
	</g>
	<path class="st7" d="M244.8-599.5c0,0-9.8-57.1-71.6-59.5c0,0-12.2,6.6-12.2,11.5c0,0,30.5-1.2,38.1,8.5
		c7.6,9.7,17.2,14.9,32.5,56.5L244.8-599.5z"/>
	<path class="st8" d="M328.6-393c-14.6-23.3-28.7-31.7-41.6-69c-8.9-25.6-58.5-8-50.7-96l4.9-22l-3.7-7"/>
	<path class="st9" d="M414-692c22,22,16.1,47.2-8,87c-5.4,9-17.7,38.8-46,49c-11.2,4-21.8,7.9-36,7c-10.4-0.6-19.8-3.7-22,0
		c-1.4,2.4,1.5,5.2,4,11c2.4,5.6,2.8,10.2,1,36c-1,15-1.6,22.5-3,24c-10.7,11.1-47.5,1.2-59-21c-0.3-0.6-6.9-13.5-2-19
		c4.5-5.1,17.1-1.9,25,0c10.7,2.6,13.9,5.7,16,4c4.4-3.7-8.7-18.9-9-40c-0.2-11.5,3.5-21.2,7-28"/>
	<path class="st5" d="M265.3-692c-14.6-7.2-27.6,10.1-27.8,15c0,0,8.4,17.3,22.9,14.7"/>
	<path class="st10" d="M251.1-605.5c0,0,7.9-7.5,15-10.5c12.4-5.3,31.6,30.8,31.6,30.8"/>
	<path class="st10" d="M331-609"/>
	<path class="st10" d="M340-621"/>
	<line class="st10" x1="147.9" y1="-532" x2="297.6" y2="-642"/>
	<line class="st10" x1="265" y1="-662" x2="304.6" y2="-637.4"/>
	<line class="st11" x1="333.9" y1="-639" x2="392.2" y2="-661.9"/>
	<g class="st2">
		<g>
			<path class="st3" d="M342.3-457.3c4.5,0,8.5,1,12,3.1c10.1,6,12.6,18.9,13.2,26c1.2,15-3.4,32.5-12.6,48.1
				c-7.1,12-16.3,22.1-26.7,29c-9,6-18.4,9.3-26.5,9.3c-4.5,0-8.5-1-12-3.1c-10.1-6-12.6-18.9-13.2-26c-1.2-15,3.4-32.5,12.6-48.1
				c7.1-12,16.3-22.1,26.7-29C324.8-454,334.2-457.3,342.3-457.3 M342.3-479.3c-25.3,0-54,18.5-72.1,49.2
				c-24,40.7-20.2,87.3,8.4,104.2c7,4.2,14.9,6.1,23.2,6.1c25.3,0,54-18.5,72.1-49.2c24-40.7,20.2-87.3-8.4-104.2
				C358.5-477.4,350.6-479.3,342.3-479.3L342.3-479.3z"/>
		</g>
	</g>
	<path class="st12" d="M303-497c1.9-3,19,3,19,3s12-23.4,16.6-20.7c27.1,15.5,33.4,41.9,37.1,40.3c2.1-0.9,9.5-6.4,5.1-17.8
		c-5-12.9-18.3-39.4-56.8-61.8"/>
</g>
<g id="Capa_3">
	<g>
		<defs>
			<rect id="SVGID_1_" x="0" y="0" width="391.2" height="391.2"/>
		</defs>
		<clipPath id="SVGID_2_">
			<use xlink:href="#SVGID_1_"  style="overflow:visible;"/>
		</clipPath>
		<g class="st13">
			
				<radialGradient id="SVGID_3_" cx="375.0509" cy="-124.9107" r="295.2058" gradientTransform="matrix(1.3816 0 0 1.3791 -110.3161 156.3265)" gradientUnits="userSpaceOnUse">
				<stop  offset="0" style="stop-color:#2C4B9A"/>
				<stop  offset="0.6442" style="stop-color:#233378"/>
				<stop  offset="0.8525" style="stop-color:#202B6C"/>
			</radialGradient>
			<ellipse class="st14" cx="407.9" cy="-15.9" rx="407.9" ry="407.1"/>
			
				<radialGradient id="SVGID_4_" cx="407.8641" cy="-15.9383" r="407.4919" gradientTransform="matrix(1 0 0 0.9982 0 -2.910501e-002)" gradientUnits="userSpaceOnUse">
				<stop  offset="0" style="stop-color:#000000"/>
				<stop  offset="3.609031e-002" style="stop-color:#020307"/>
				<stop  offset="0.3718" style="stop-color:#142246"/>
				<stop  offset="0.6558" style="stop-color:#213873"/>
				<stop  offset="0.8739" style="stop-color:#294690"/>
				<stop  offset="1" style="stop-color:#2C4B9A"/>
			</radialGradient>
			<path class="st15" d="M407.9-374.8c48.6,0,95.7,9.5,140,28.2c42.8,18.1,81.3,44,114.3,76.9c33,33,59,71.4,77.1,114.1
				c18.7,44.2,28.2,91.2,28.2,139.6s-9.5,95.4-28.2,139.6c-18.1,42.7-44,81.1-77.1,114.1c-33,33-71.5,58.9-114.3,76.9
				c-44.3,18.7-91.4,28.2-140,28.2s-95.7-9.5-140-28.2c-42.8-18.1-81.3-44-114.3-76.9c-33-33-59-71.4-77.1-114.1
				C57.8,79.5,48.3,32.5,48.3-15.9s9.5-95.4,28.2-139.6c18.1-42.7,44-81.1,77.1-114.1c33-33,71.5-58.9,114.3-76.9
				C312.2-365.3,359.3-374.8,407.9-374.8 M407.9-423.1C182.6-423.1,0-240.8,0-15.9s182.6,407.1,407.9,407.1S815.7,208.9,815.7-15.9
				S633.1-423.1,407.9-423.1L407.9-423.1z"/>
		</g>
		<g class="st13">
			<polygon class="st16" points="222.1,128.8 172.9,151.3 181.3,112.4 221.6,95.1 238.6,115 			"/>
			<polygon class="st16" points="269,246.1 199.4,227.3 189.2,150.7 276.7,128.8 276.7,206.2 			"/>
			<polygon class="st16" points="365.5,98.9 278.4,142.9 296.3,71.1 359,57.4 			"/>
			<polygon class="st16" points="329.8,66.1 208.3,91.9 211.3,63.6 319.2,40.6 			"/>
			<path id="XMLID_1_" class="st17" d="M56.3,184.5l157.8-91.1l4.8-7.4l77.4-14.9l-15.2,42.2c0,0-29.5-4.6-33.5,3.4"/>
			<g class="st0">
				<path class="st18" d="M60.2,264.6c-4.5,0-8.8-0.8-12.8-2.3c-9.5-3.6-17-11.1-21.6-21.7c-7.3-16.8-6.5-39.3,2.1-60.2
					c12.2-29.4,37.2-50,61-50c4.5,0,8.8,0.8,12.8,2.3c9.5,3.6,17,11.1,21.6,21.7c7.3,16.8,6.5,39.3-2.1,60.2
					C109.1,244,84,264.6,60.2,264.6C60.2,264.6,60.2,264.6,60.2,264.6z"/>
				<g class="st2">
					<path class="st19" d="M88.9,141.2c3.2,0,6.3,0.5,9.1,1.6c8.5,3.2,13.1,10.4,15.5,15.9c6.2,14.2,5.4,33.6-2.2,51.8
						c-11.8,28.5-34.6,43.4-51.1,43.4c-3.2,0-6.3-0.5-9.1-1.6c-8.5-3.2-13.1-10.4-15.5-15.9c-6.2-14.2-5.4-33.6,2.2-51.8
						C49.5,156.1,72.4,141.2,88.9,141.2 M88.9,119.7c-27.4,0-56.8,22.4-70.9,56.6c-17.1,41.3-5.6,84.3,25.7,96c5.4,2,10.9,3,16.6,3
						c27.4,0,56.8-22.4,70.9-56.6c17.1-41.3,5.6-84.3-25.7-96C100.1,120.7,94.5,119.7,88.9,119.7L88.9,119.7z"/>
				</g>
			</g>
			<line class="st20" x1="172.2" y1="124.5" x2="105.2" y2="162.5"/>
			<g>
				<path class="st21" d="M262.2,381.5c-4.4,0-8.6-0.7-12.7-2.2c-9.6-3.5-17-10.6-21.6-20.8c-6.2-13.7-6-30.9,0.5-47
					c9.4-23.5,30.5-39.9,51.4-39.9c4.4,0,8.6,0.7,12.7,2.2c9.6,3.5,17,10.6,21.6,20.8c6.2,13.7,6,30.9-0.5,47
					C304.2,365.1,283.1,381.5,262.2,381.5C262.2,381.5,262.2,381.5,262.2,381.5z"/>
				<g>
					<path class="st22" d="M279.9,281.4c3.3,0,6.4,0.5,9.4,1.6c8.9,3.2,13.6,10.3,16,15.6c5.1,11.4,4.9,25.7-0.6,39.5
						c-4.1,10.3-10.7,19-18.9,25.2c-7.4,5.6-15.8,8.6-23.5,8.6c-3.3,0-6.4-0.5-9.4-1.6c-8.9-3.2-13.6-10.3-16-15.6
						c-5.1-11.4-4.9-25.7,0.6-39.5c4.1-10.3,10.7-19,18.9-25.2C263.8,284.4,272.1,281.4,279.9,281.4 M279.9,262
						c-24.3,0-49.2,18-60.3,45.9c-13.7,34.1-1.7,70.1,26.8,80.4c5.2,1.9,10.5,2.8,15.9,2.8c24.3,0,49.2-18,60.3-45.9
						c13.7-34.1,1.7-70.1-26.8-80.4C290.6,262.9,285.3,262,279.9,262L279.9,262z"/>
				</g>
			</g>
			<g>
				<path class="st16" d="M72,266.6c-2.5,0-4.9-0.3-7.3-0.8c-11.6-2.6-18.8-11-22.8-17.6c-9.7-15.9-11.9-39.1-5.9-62
					c8.9-34.1,34.1-59.8,58.5-59.8c2.5,0,4.9,0.3,7.3,0.8c11.6,2.6,18.8,11,22.8,17.6c9.7,15.9,11.9,39.1,5.9,62
					C121.5,240.9,96.4,266.6,72,266.6C72,266.6,72,266.6,72,266.6z"/>
				<g>
					<path class="st22" d="M94.5,137.3c1.7,0,3.3,0.2,4.9,0.5c6.4,1.4,11.7,5.7,15.9,12.6c8.2,13.5,9.9,33.5,4.7,53.6
						c-8.5,32.3-31,51.7-48,51.7c-1.7,0-3.3-0.2-4.9-0.5c-6.4-1.4-11.7-5.7-15.9-12.6c-8.2-13.5-9.9-33.5-4.7-53.6
						C55,156.6,77.6,137.3,94.5,137.3 M94.5,115.6c-29,0-58.6,28.2-69,67.9c-11.6,44.1,4.9,85.7,36.8,92.9c3.2,0.7,6.4,1.1,9.7,1.1
						c29,0,58.6-28.2,69-67.9c11.6-44.1-4.9-85.7-36.8-92.9C101,115.9,97.7,115.6,94.5,115.6L94.5,115.6z"/>
				</g>
			</g>
			<path class="st23" d="M254.3,249.3c1.9-2.8,15.2,3.6,15.2,3.6s11.9-22.3,16.5-19.8c27,14.8,33.2,40.1,36.8,38.5
				c2.1-0.9,9.4-6.1,5-17c-4.9-12.3-10.1-33-48.4-54.4"/>
			<line class="st24" x1="250.6" y1="134.3" x2="226.6" y2="141.3"/>
			<path class="st25" d="M271.1,326.6c-14.5-22.3-23.5-7.5-36.4-43.2c-8.8-24.5-58.2-7.6-50.4-91.8l4.9-21l-3.6-6.7"/>
			<path class="st23" d="M365.9,71.1c13.9,24.6,28.3,37.6,4.3,75.7c-5.4,8.6-17.5,37.1-45.7,46.8c-11.1,3.9-21.7,7.5-35.8,6.7
				c-10.4-0.6-7.1-3.6-9.3,0c-1.4,2.3-0.6,16.7,1.8,22.2c2.4,5.3-1.2-1-2.9,23.7c-1,14.3-8.1,20.6-9.5,22.1
				c-10.6,10.6-47.2,1.1-58.6-20.1c-0.3-0.6-6.8-12.9-2-18.2c4.5-4.8,17-1.9,24.8,0c10.6,2.5,13.9-18.7,15.9-20.3
				c4.3-3.5-8.6,6-8.9-14.1c-0.2-11,3.5-20.2,7-26.8"/>
			<line class="st26" x1="211.3" y1="63.6" x2="310.4" y2="47.3"/>
			<line class="st26" x1="288.9" y1="131.7" x2="356.9" y2="114"/>
			<path class="st26" d="M290.7,131.2c-1.3,3.8-26.8,16.8-33.2,9.7c-6.4-7.1-2.6-21.5,4.6-24.8c5.6-2.5,14.3-1.7,22.5-0.8"/>
			<g>
				<path class="st16" d="M345.9,86.2c-2.1,0-4.3-0.3-6.3-0.8c-6.9-1.8-12.6-6.4-16.6-13.3c-5.8-10.1-7-23.6-3.3-36.9
					c4.9-17.5,15.9-27.2,30.9-27.2c3.1,0,6.4,0.4,9.7,1.3c9.4,2.4,16.8,7.7,20.9,14.8c4.3,7.4,5,16.9,2,27.3
					C377.6,71.6,361.9,86.2,345.9,86.2z"/>
				<path class="st22" d="M350.6,13.2L350.6,13.2c2.7,0,5.5,0.4,8.4,1.1c8,2.1,14.3,6.5,17.7,12.4c3.6,6.3,4.1,14.1,1.5,23.4
					c-2.5,9.1-7.4,17.2-13.8,22.9c-5.8,5.2-12.4,8.1-18.6,8.1c-1.7,0-3.4-0.2-5-0.6c-6.9-1.8-11.1-6.9-13.4-10.9
					c-5.1-8.8-6.1-21.1-2.8-32.9C329,21.3,338,13.2,350.6,13.2 M350.6,2.9c-15.9,0-29.9,9.7-35.8,30.9c-7.3,26,3.2,51.3,23.5,56.5
					c2.5,0.7,5,1,7.6,1c18,0,35.9-15.7,42.3-38.5c7.3-26-6.3-43.3-26.5-48.5C357.9,3.4,354.2,2.9,350.6,2.9L350.6,2.9z"/>
			</g>
			<path class="st27" d="M192.8,152c0,0-9.8-54.6-71.1-56.9c0,0-12.1,6.3-12.1,11c0,0,30.3-1.2,37.9,8.1
				c7.6,9.2,17.1,14.2,32.3,54.1L192.8,152z"/>
			<line class="st23" x1="299.9" y1="154.4" x2="254.3" y2="164"/>
			<path class="st26" d="M213.2,63.6c-14.5-6.8-27.4,9.6-27.6,14.3c0,0,8.4,16.6,22.7,14"/>
			<path class="st28" d="M199,146.3c0,0,7.9-7.2,14.9-10.1c12.3-5.1,31.4,29.4,31.4,29.4"/>
			<line class="st29" x1="91.3" y1="196.9" x2="243.6" y2="114"/>
			<line class="st28" x1="212.8" y1="92.3" x2="252.2" y2="115.7"/>
			<line class="st30" x1="281.3" y1="114.3" x2="328.7" y2="100.1"/>
		</g>
		<radialGradient id="SVGID_5_" cx="329.7882" cy="55.3834" r="19.0101" gradientUnits="userSpaceOnUse">
			<stop  offset="0.4245" style="stop-color:#263685"/>
			<stop  offset="0.5283" style="stop-color:#30388B"/>
			<stop  offset="0.6475" style="stop-color:#34398D"/>
			<stop  offset="0.7007" style="stop-color:#314193"/>
			<stop  offset="0.8061" style="stop-color:#2D4998"/>
			<stop  offset="1" style="stop-color:#2C4B9A"/>
		</radialGradient>
		<radialGradient id="SVGID_6_" cx="329.7882" cy="55.3834" r="29.873" gradientUnits="userSpaceOnUse">
			<stop  offset="0.4245" style="stop-color:#263685"/>
			<stop  offset="0.5283" style="stop-color:#30388B"/>
			<stop  offset="0.6475" style="stop-color:#34398D"/>
			<stop  offset="0.7007" style="stop-color:#314193"/>
			<stop  offset="0.8061" style="stop-color:#2D4998"/>
			<stop  offset="1" style="stop-color:#2C4B9A"/>
		</radialGradient>
		<path class="st31" d="M303.5,49.7c0,0,45.3,19.1,52.6,7.6"/>
	</g>
</g>
</svg>
